<svg xmlns="http://www.w3.org/2000/svg" xmlns:xlink="http://www.w3.org/1999/xlink" viewBox="0 0 400.09 338.87"><defs><style>.cls-1,.cls-2{fill:none;}.cls-1,.cls-10,.cls-11,.cls-12,.cls-13,.cls-14,.cls-15,.cls-2{stroke-miterlimit:10;}.cls-1{stroke:url(#linear-gradient);}.cls-2{stroke:url(#linear-gradient-2);}.cls-3{fill:#251d3c;}.cls-4{fill:#241618;}.cls-5{fill:url(#linear-gradient-3);}.cls-6{fill:url(#linear-gradient-4);}.cls-7{clip-path:url(#clip-path);}.cls-8{clip-path:url(#clip-path-2);}.cls-9{fill:#c10f1a;}.cls-10{fill:#e6b057;stroke:#8e9657;}.cls-11{fill:#573439;}.cls-11,.cls-14{stroke:#241618;}.cls-12{fill:#b6aa41;}.cls-12,.cls-13,.cls-15{stroke:#251d3c;}.cls-13{fill:#b49fa7;}.cls-14{fill:#bea09f;}.cls-15{fill:#fff6ef;}</style><linearGradient id="linear-gradient" x1="124.58" y1="309.34" x2="176.1" y2="309.34" gradientUnits="userSpaceOnUse"><stop offset="0" stop-color="#241618"/><stop offset="0.63" stop-color="#806e6a" stop-opacity="0.62"/><stop offset="1" stop-color="#ffe9db" stop-opacity="0.1"/></linearGradient><linearGradient id="linear-gradient-2" x1="232.06" y1="309.44" x2="284.1" y2="309.44" gradientUnits="userSpaceOnUse"><stop offset="0" stop-color="#ffe9db" stop-opacity="0.1"/><stop offset="0" stop-color="#fee8da" stop-opacity="0.1"/><stop offset="0.36" stop-color="#564645" stop-opacity="0.79"/><stop offset="1" stop-color="#241618"/></linearGradient><linearGradient id="linear-gradient-3" x1="112.09" y1="300.81" x2="175.09" y2="300.81" gradientUnits="userSpaceOnUse"><stop offset="0" stop-color="#241618"/><stop offset="0.29" stop-color="#2a1c1e" stop-opacity="0.99"/><stop offset="0.48" stop-color="#3f3030" stop-opacity="0.94"/><stop offset="0.64" stop-color="#61514f" stop-opacity="0.86"/><stop offset="0.79" stop-color="#93817a" stop-opacity="0.75"/><stop offset="0.92" stop-color="#d1bdb2" stop-opacity="0.6"/><stop offset="1" stop-color="#ffe9db" stop-opacity="0.5"/></linearGradient><linearGradient id="linear-gradient-4" x1="232.64" y1="301.1" x2="290.09" y2="301.1" gradientUnits="userSpaceOnUse"><stop offset="0" stop-color="#fff" stop-opacity="0.5"/><stop offset="0.05" stop-color="#eee" stop-opacity="0.53"/><stop offset="0.36" stop-color="#888" stop-opacity="0.73"/><stop offset="0.64" stop-color="#3e3e3e" stop-opacity="0.88"/><stop offset="0.86" stop-color="#111" stop-opacity="0.97"/><stop offset="1"/></linearGradient><clipPath id="clip-path"><path class="cls-1" d="M125.09,307.84c.38-3.75,8.36-6.68,15-7,8.42-.41,15.42,3.32,19.5,5.5s5.53,3.72,11.5,6.5c2.64,1.23,4.62,2,4.5,2.5-.17.81-5.17-.29-12,0-8,.34-8.38,2.17-16.5,2.5a37.18,37.18,0,0,1-14-2c-3.35-1.21-5.63-2.65-7-5A5.12,5.12,0,0,1,125.09,307.84Z"/></clipPath><clipPath id="clip-path-2"><path class="cls-2" d="M232.59,315.34c-.58-1.22,7.29-7.41,17-11a45.29,45.29,0,0,1,16-3,28.3,28.3,0,0,1,15,4c2.81,1.75,3,2.66,3,3,.3,3.42-8.58,8.07-17,9-6.86.75-14.93-.8-16-1a43.19,43.19,0,0,0-8-1c-2.33-.06-5,0-5,0C233.39,315.43,232.75,315.66,232.59,315.34Z"/></clipPath></defs><g id="Layer_2" data-name="Layer 2"><g id="Layer_1-2" data-name="Layer 1"><path class="cls-3" d="M208.49,279.34c-.25,0-.92,14.46,2.14,16,.33.17,1.23.44,1.42,0s-.76-2-1.06-2.5C208.06,288.3,208.69,279.32,208.49,279.34Z"/><path class="cls-3" d="M200.18,285.84a12.44,12.44,0,0,0,1.64,8,4.55,4.55,0,0,0,2.46,2c.31.09.7.2.82,0,.25-.45-1.27-1.74-2.46-4a14.16,14.16,0,0,1-1.64-6,16.87,16.87,0,0,1,.82-5A10.63,10.63,0,0,0,200.18,285.84Z"/><path class="cls-4" d="M204.09,288.84c-.34-.1-2.12,3.66-1,5,.15.17.34.31,1,1s.92,1,1,1-.64-1.35-1-3C203.58,290.47,204.32,288.9,204.09,288.84Z"/><path class="cls-3" d="M194.59,279.34a12.68,12.68,0,0,1-.5,6.5,12,12,0,0,1-1,2,12.64,12.64,0,0,1-.92,1.29c0-.45-.06-.82-.08-1.29-.09-2.33,1.27-3.83,1-4s-1.1.64-2.11,1.72a6,6,0,0,0,.11-.72c.42-3.94-1.79-7.07-2-7a7.65,7.65,0,0,1,0,3,5.86,5.86,0,0,1-1,2c-.15.18-.3.34-.44.48a8.54,8.54,0,0,0-.56-2.48c-1.1-2.76-3.8-4.2-4-4s.64.69,1,2a6.23,6.23,0,0,1,0,3s0,0,0,.05a8.42,8.42,0,0,0-1-2.05,15,15,0,0,0-5-5,9.35,9.35,0,0,1,2,2,8.8,8.8,0,0,1,.82,1.43c-5.08-5.68-19.46-7.7-28.32-8.93a103.49,103.49,0,0,0-14-1c-9.62,0-20.41,0-31,6-4.53,2.56-9.65,6.56-9,8,.87,1.91,10.62-3.55,26-3a113.48,113.48,0,0,1,20,3c6.31,1.39,12,3,12,3a67.42,67.42,0,0,1,7.52,1.94c8.34,2.69,11.53,5.53,19,6.56,3,.41,5.6.38,8-1a8,8,0,0,0,3.5-3.5A12.88,12.88,0,0,0,194.59,279.34Z"/><path class="cls-3" d="M296.09,273.84c-5.33-3.3-10.24-4.29-14.87-5.17-3.6-.69-10.18-1.66-21.13-.83-11.7.88-23.67,1.78-28.32,6.39a41.86,41.86,0,0,1,3.32-5.39c-.16-.14-2.72,2.4-5,6a29.35,29.35,0,0,0-1.68,2.93,6.35,6.35,0,0,1-.32-.93c-.6-2.59,1.24-4.88,1-5s-1.18,1.26-2,3a12.21,12.21,0,0,0-1.25,4.19,3.69,3.69,0,0,1-.75-1.19c-.57-1.54.15-3,0-3a6.31,6.31,0,0,0-1,3,8.82,8.82,0,0,0,0,2c0,.34.06.67.1,1-.76-1.07-.92-2-1.1-2s-.09.93.16,2.13l-.16-.13c-.9-.84-.85-2-1-2s0,2.2,0,3.82a4.56,4.56,0,0,0-2-1.82,9.18,9.18,0,0,1,1,2c.38,1.38.33,2.93,0,3s-.86-1-1-2a6.48,6.48,0,0,1,0-1,4.85,4.85,0,0,0-.47,1.87c-.72-2.15-.26-3.85-.53-3.87-.46,0-1.62,4.89,0,7a7.32,7.32,0,0,1-3-4,9.67,9.67,0,0,1,0-3c-.18,0-1.56,2.32-1,5,.7,3.32,4.21,4.68,5,5a12.23,12.23,0,0,0,8,0c8.41-2.39,12.62-3.58,20.78-6.29a132.69,132.69,0,0,1,17.22-4.71c1.21-.24,2-.39,3-.54a55.74,55.74,0,0,1,25,1.54c7.82,2.44,12.21,6,13,5C308,284.6,302.91,278.06,296.09,273.84Z"/><path class="cls-3" d="M212.09,284.84a8.19,8.19,0,0,0,2,6,6.15,6.15,0,0,0,3,2,21.32,21.32,0,0,1-3-3A12.92,12.92,0,0,1,212.09,284.84Z"/><path class="cls-3" d="M197.09,288.84a6.3,6.3,0,0,0,0-4,16.14,16.14,0,0,1-1,5,12,12,0,0,1-3,4A8.57,8.57,0,0,0,197.09,288.84Z"/><path class="cls-4" d="M206.09,288.84s-1,4,1,6a3.14,3.14,0,0,0,2,1,11.66,11.66,0,0,1-2-2,7,7,0,0,1-1-3A7.16,7.16,0,0,1,206.09,288.84Z"/><path class="cls-4" d="M198.09,289.84a3.49,3.49,0,0,1,0,2,3.23,3.23,0,0,1-2,2c-.06-.08,1.78-1.16,2-3A5.63,5.63,0,0,0,198.09,289.84Z"/><path class="cls-5" d="M112.09,306.84c.08.13,13.7-13.64,32-13s30.85,15.21,31,15-11.64-15-30-16C125.81,291.8,112,306.7,112.09,306.84Z"/><path class="cls-6" d="M232.64,308.14c.09.14,13.75-13.87,32-13,14.86.71,25.32,10.93,25.45,10.7s-9.84-10.62-24.45-11.7C246.65,292.73,232.56,308,232.64,308.14Z"/><g class="cls-7"><circle class="cls-4" cx="145.09" cy="309.84" r="10.5"/></g><path class="cls-1" d="M125.09,307.84c.38-3.75,8.36-6.68,15-7,8.42-.41,15.42,3.32,19.5,5.5s5.53,3.72,11.5,6.5c2.64,1.23,4.62,2,4.5,2.5-.17.81-5.17-.29-12,0-8,.34-8.38,2.17-16.5,2.5a37.18,37.18,0,0,1-14-2c-3.35-1.21-5.63-2.65-7-5A5.12,5.12,0,0,1,125.09,307.84Z"/><g class="cls-8"><circle class="cls-4" cx="261.59" cy="309.34" r="10"/></g><path class="cls-2" d="M232.59,315.34c-.58-1.22,7.29-7.41,17-11a45.29,45.29,0,0,1,16-3,28.3,28.3,0,0,1,15,4c2.81,1.75,3,2.66,3,3,.3,3.42-8.58,8.07-17,9-6.86.75-14.93-.8-16-1a43.19,43.19,0,0,0-8-1c-2.33-.06-5,0-5,0C233.39,315.43,232.75,315.66,232.59,315.34Z"/><path class="cls-3" d="M395.59,180.34c6.83,68.49-50.56,132.54-64,128-10.15-3.44,6.21-45.58-19-95-4.61-9-13.77-26.57-32-41-45.83-36.29-113.42-24.82-153-3-11,6.09-33.79,19-47,45-5,9.85-7,18.4-9,27-9.27,40.4.55,66.35-4,68-7.48,2.71-60.21-58.17-54-127,7.12-78.87,89.64-146.19,174-153C287.24,21.29,387.37,97.84,395.59,180.34Z"/><path class="cls-9" d="M55.59,118.34c-13.55,14.78,6.9,49.07-4.5,56.5-5.06,3.29-14.53.09-19-5-5.78-6.6-.64-13.49-6-27-3.92-9.89-8.35-9.05-9.5-16.5-1.7-11.07,2.73-24,12-31,13.86-10.48,28-2,36-12,6.56-8.23-1.42-15.77,6-29,.76-1.36,8.76-15.36,22-17,8.35-1,13.72,3.44,18,0s.3-9.3,4-14c6.63-8.42,24.78,3.69,40-6,4.72-3,3.36-4.4,10-9,2-1.35,17.38-12,25-7,5.24,3.46,1.26,10.71,7,16,1.11,1,4.18,3.44,23,3,15.85-.38,19.72-2.24,24,1,6.13,4.63,3.75,12.6,8,14,6.84,2.24,13.8-18.07,26-18,7.55,0,6.83,7.82,22,15,8.31,3.92,13.42,3.91,20,10,2.41,2.23,3.93,4.5,7,9,8.35,12.24,7.43,16.46,13.5,20.5,2.83,1.87,3.54,1.3,10,5,4.75,2.71,7.12,4.07,8.5,5.5,5,5.15,7.12,13.41,10,17s3.42,2.84,7,7c2.68,3.11,7.44,8.75,9,16,1.73,8,.05,20.17-7,24-9,4.9-21.85-6.63-25-3s10.07,14.67,7,25c-2.2,7.41-12.44,13.29-21,13-19.61-.67-23.09-33.48-49-62-2.59-2.85-38.87-41.77-85-42-42.8-.22-60.27,33.05-112,37C76.21,115.59,63.23,110,55.59,118.34Z"/><path class="cls-10" d="M96.59,136.34c1.25.11,2.32,19.41-2,41-4.13,20.64-6.51,32.51-16,42-15.88,15.87-32.55,5.94-54,25-10.78,9.58-13.23,18-14,22-1.45,7.53.28,14,0,14s-4.88-11.11-2-23c4.35-17.95,23-27,27-29,13-6.35,18.28-2.83,31-11,3.79-2.43,10.07-6.55,15-14,5.45-8.22,5.45-14.73,8-32C91.26,160.08,95.19,136.22,96.59,136.34Z"/><path class="cls-11" d="M102.59,130.34c-4.55-4-12.31-2.64-15,2-1.87,3.24-.88,7.39,1,10,3,4.18,9.73,6.28,14,3S107,134.23,102.59,130.34Z"/><path class="cls-10" d="M100.59,156.34c-3.53-4.67-11.34-4-15,0a8.45,8.45,0,0,0-2,8c1.87,5.48,11.33,8.36,16,4A9.41,9.41,0,0,0,100.59,156.34Z"/><path class="cls-10" d="M83.59,179.34c-2.71,1.53-5.7,5-5,8,1.28,5.48,14.49,9.07,19,4a7.85,7.85,0,0,0,1-8C96.42,178.33,88.72,176.44,83.59,179.34Z"/><path class="cls-10" d="M72.59,198.34c-.16.14-3.56,3.16-3,7,1.12,7.64,17.15,12.87,22,8,2.58-2.58,1.82-7.81,0-11C87.88,195.79,77.62,194,72.59,198.34Z"/><path class="cls-10" d="M57.59,212.34a7.84,7.84,0,0,0-6,5c-2,6.32,6.51,16,14,15,2.08-.28,5-1.5,6-4C74,222.4,65.13,211.05,57.59,212.34Z"/><path class="cls-10" d="M38.59,220.34c-4.5,5.41-3.8,16,2,19,2.7,1.37,6.73,1.19,9-1,5.38-5.2-.49-20.39-6-21C41.3,217.08,39.39,219.38,38.59,220.34Z"/><path class="cls-10" d="M18.59,230.34a8.92,8.92,0,0,0-7,8c-.32,7.29,11.64,13.72,16,11,2.89-1.81,2.91-7.89,1-12C27.17,234.27,23.42,229.57,18.59,230.34Z"/><path class="cls-10" d="M18.59,258.34c-.76-4.49-8.86-8-14-5-2.36,1.36-4.58,4.35-4,7,1,4.56,10.12,7.54,15,4C17.28,263.11,19,260.72,18.59,258.34Z"/><path class="cls-10" d="M9.59,272.34c-2.34-.23-5.11.89-6,3-1.51,3.59,2.73,9.44,7,9a6,6,0,0,0,5-5C16.07,275.87,13,272.67,9.59,272.34Z"/><path class="cls-10" d="M292.9,144.34c-.68.13-1,9,2.69,18,4.08,9.84,10.52,13.67,17.13,20,11.33,10.85,26.47,32.24,21.87,48-3.85,13.22-20.28,18-19.17,20,1,1.8,15.14,0,21.61-10,6.68-10.3,3.21-23.59,1.8-29-3-11.64-9.3-19-15.31-26-11.82-13.83-18.21-13.57-24.31-26C294.82,150.4,293.49,144.22,292.9,144.34Z"/><path class="cls-11" d="M293.59,138.34c-4.67-.5-10.19,3.7-10,8s6.27,6.72,7,7c3.46,1.32,9.11,1.77,11-1C304.12,148.64,300.08,139,293.59,138.34Z"/><path class="cls-10" d="M304.59,160.34c-4.61-.76-9,2.71-10,7-.8,3.31.28,7.46,3,9,4.85,2.74,14.38-3.07,14-9C311.39,164.13,308.28,160.94,304.59,160.34Z"/><path class="cls-10" d="M318.59,173.34c-6.22-1.3-13.5,6.5-12,12,.74,2.69,3.5,4.54,6,5,6,1.1,13-5.37,12-11A7.93,7.93,0,0,0,318.59,173.34Z"/><path class="cls-10" d="M332.59,188.34c-4.39-1.05-10.22,5.12-10,11,.1,2.51,1.33,6,4,7,4.09,1.5,10.47-3.28,11-9C337.94,193.58,335.78,189.09,332.59,188.34Z"/><path class="cls-10" d="M343.59,213.34c-4.29-3.06-11.57-4.05-15,0a8.32,8.32,0,0,0-1,9c3.72,6.42,19,4.84,21,0C349.78,219.46,346.34,215.29,343.59,213.34Z"/><path class="cls-10" d="M326.59,233.34c-1.61,2.81,1.06,10.08,7,11,6.23.95,10.9-5.86,10-9C342.34,230.94,328.93,229.27,326.59,233.34Z"/><path class="cls-10" d="M310.59,241.34c-2.34.79-4.42,6.89-1,11s9.8,3.16,11,1C322.43,250,314.19,240.13,310.59,241.34Z"/><path class="cls-10" d="M224.38,113.91l-6.85,5.61C199.67,134.28,194,159.9,194.68,160.3c.38.22,2.93-6.32,12-21.16,4.38-7.16,7.66-12,10.53-15.92S222.51,116.21,224.38,113.91Z"/><path class="cls-10" d="M212,117.94c4.07-2.42,10.42,2.86,9.64,8.41a8.2,8.2,0,0,1-4.77,6.21c-4.12,1.53-8.53-2.9-8.24-8C208.72,122.11,209.94,119.15,212,117.94Z"/><path class="cls-10" d="M201,132.79c3.25-2.31,9.67,2.21,9.19,7.33A6.62,6.62,0,0,1,207.3,145c-3.47,2-8.65-2.15-8.5-7.14C198.85,136.21,199.5,133.85,201,132.79Z"/><path class="cls-10" d="M195.08,151c3.12-1.56,7,1.49,6.9,4.8-.12,2.87-3.29,5.23-5.46,6-.73.26-3.22,1.15-4.42-.31C190.36,159.34,191.66,152.67,195.08,151Z"/><path class="cls-10" d="M219.12,108.63c2.3-4.83,12.7-4.82,13.75-.82,1,3.66-5.44,12.54-10,11.34-1.94-.51-3.32-2.8-3.87-4.88C218.83,113.59,218.09,110.79,219.12,108.63Z"/><path class="cls-10" d="M148.59,89.34c-5.86-8.26-47.41-1.71-61,26-12.21,24.9,5.48,52,14,65,3.65,5.57,8.82,12,11,11,1.91-.85.08-6.68,1-16,.62-6.23,2.12-10.57,4-16C126.28,134.26,154.94,98.28,148.59,89.34Z"/><path class="cls-10" d="M236.59,93.34c7.46-9.23,52,8.88,53,26,.23,3.91-1.92,6-4,20-1.07,7.22-1.61,11.08-1,16,1.39,11.08,7.43,17.68,7,18C290.21,174.35,226,106.43,236.59,93.34Z"/><path class="cls-12" d="M152.59,89.34c-.47-11-55.49-28.14-88-6a76,76,0,0,0-19,19c-8.38,12.9-5.41,18.91-14,33-8.93,14.67-18.8,19.09-17,23,1.24,2.68,6.81,2.59,28,0,40.29-4.94,44.9-7.66,48-10,11.38-8.59,7.17-15.56,19-30C128.61,95.12,152.91,96.71,152.59,89.34Z"/><path class="cls-13" d="M224.59,64.34c3.6-4.73,29.69,17.49,76,36,30.43,12.16,59.1,18.54,69,35a44.21,44.21,0,0,0,13,15c8.92,6.26,17.11,6.35,17,8-.15,2.37-17.24,4.33-36,3s-32.49-2.31-46-12c-12.11-8.7-8.52-13.68-21-27-23-24.53-47.06-19.75-67-47C226.81,71.53,223.07,66.34,224.59,64.34Z"/><path class="cls-14" d="M138.59,84.34c-5.8-4.54-24.92,3.1-30,17-3.71,10.14,1.17,20.61,3,24,6.74,12.48,17.47,13,18,22,.37,6.29-4.59,10.25-2,17,1.08,2.79,3.16,5.3,4,5,1-.36-.58-4.21,0-10,.63-6.26,3-7.54,3-12-.05-6.39-5.48-10.58-5-11,.89-.78,7.88,2.12,9,8,.89,4.64-3.59,8.51-3,9s8.44-4.11,8-9-8.46-9-20-15c-2.24-1.18-5.24-2.67-7-6a14,14,0,0,1-1-9c2.1-11.84,16.14-19,17-18,1,1.14-16.51,13.94-13,23,.69,1.77,2.13,2.84,5,5,9.2,6.88,14.29,4.25,18,9s-.27,8.53,4,17c2.45,4.84,6.19,8.47,7,8,1-.56-3.1-6.43-5-17-1.27-7.13-.12-8.34-2-11-3.69-5.24-9.71-2.72-14-8a13.51,13.51,0,0,1-2-13c1.79-4.22,5.2-3.84,8-8C142.13,96.08,142.25,87.2,138.59,84.34Z"/><path class="cls-15" d="M222.59,98.34c5.67,2.26,4.45,2.29,11,5,18.84,7.79,24.78,5.83,36,13,6.69,4.27,13.3,10.53,12,14-.64,1.72-2.84,1.68-3,3-.38,3.23,13.22,3.95,22,13,5.85,6,4.41,8.78,10,17,7.7,11.32,13.5,10.6,24,21,6.06,6,20.51,20.29,18,34-2.31,12.66-17,13.43-18,26-.67,8.82,6.43,10.54,8,24,1.41,12-4,13.2-2,22,3,13.26,15.78,13.41,21,29,3.24,9.68.71,16.82,2,17,2.05.28,10.51-17.48,4-30-4.18-8-11.29-7.68-13-15-1.9-8.14,6.3-11.1,6-21-.34-11.72-12-14.48-11-24,.86-7.89,9.16-8.67,14-19s2.06-20.84,1-25c-4.45-17.47-17-18.53-46-47-14.44-14.18-22.32-20.58-30-29-12.84-14.09-15.58-19.61-25-23-6.07-2.19-12.49-2.61-22-8a68.79,68.79,0,0,1-10-7c-10.48-8.3-26.21-6-60-6-41.27-.06-50.95,3.41-58,7-5.91,3-11.61,7.67-23,17-14.56,11.92-24.21,19.93-33,33-7.05,10.48-14.05,20.88-13,34,1,12.27,7.87,12.66,11,25,3.56,14-3.69,19.94-16,61-7.56,25.24-7.18,30.86-5,36,4.55,10.73,13.07,14.16,13,24-.07,11.15-11.58,18.43-11,19,.74.71,19.46-10.35,19-24-.3-9.13-8.91-11.26-12-22-2.75-9.61,1.69-16.41,8-32,12.6-31.13,19-47.06,15-64-3.14-13.19-10.42-17.67-9-31,1-9.64,5.81-16.52,9-21,11.49-16.12,20.61-11.92,38-30,6.73-7,9.58-12,18-16,6.3-3,11.55-3.43,18-4,43.72-3.88,41.71-4.75,49-4A124.57,124.57,0,0,1,222.59,98.34Z"/><path class="cls-13" d="M302.09,121.84c-9.13-6.49-24.48-6.47-30,2-4.51,6.93-.68,16.82,3,22,5.27,7.41,13.17,9.35,16,10,3.25.74,12.87,2.95,18-2C315.94,147.23,313,129.58,302.09,121.84Z"/><path class="cls-13" d="M233.59,87.34c.11-.16,10.16,3.52,13,12,1.45,4.3.76,8,0,12-5.65,30.34-4.72,28.41-6,32-5.19,14.65-13.08,25.45-14,25s5.48-11.33,8-29a68.94,68.94,0,0,0,1-15c-.71-12.44-4.87-15.76-7-30-1.42-9.49-2.47-16.54,1-19,5.26-3.73,20,3.64,26,15,4,7.49,5.33,19.1,2,29-1.41,4.19-3.66,8.06-3,14,.59,5.27,3.25,10.2,5,10,2.26-.26.82-8.78,6-13,4.35-3.54,10.79-2.82,11-2s-5.41,1.37-8,6c-1.28,2.29-.42,3.07-2,6-1.94,3.61-4.31,4.4-4,6,.28,1.42,2.31,1.56,5,3,.44.23,7.11,3.67,8,9,1,6.06-3.61,12.43-6,12-2-.36-.17-6.36-4-14-3.27-6.55-8.63-10.3-9-10-.22.18,1.35,1.84,2,5,.38,1.8.42,3.9,0,4s-1-2.15-3-6c-1.5-3-2-3.31-4-7,0,0-1.5-2.77-3-6-4.41-9.54,4.45-27.08-2-39C242.4,89.58,233.5,87.48,233.59,87.34Z"/><path class="cls-13" d="M316.09,93.84c-3.5-8.23-8.21-19.27-18-21-11.08-2-23.54,8.89-26,20-4.5,20.38,24.25,43.62,38,39,3.67-1.24,5.82-4.31,7-6C324.94,114.6,318.28,99,316.09,93.84Z"/><path class="cls-12" d="M222.59,82.34c.61-6.73,20.29-12.7,37-13,6.14-.11,7.75.62,10-1,5.84-4.2,2.26-14.32,8-31,1.2-3.47,2.82-8.18,4-8,2.07.32,3.38,15.64-1,30-1.09,3.57-2.44,6.78-2,7,1,.49,8.17-6.58,10-16,1.48-7.58-1.89-9.53-1-17,1.44-12,11.76-20.77,13-20,1,.61-4.62,6.68-6,18-1.34,11.07,2.87,14.89,0,24-2.43,7.73-7.52,11.54-7,12,.71.61,10.86-5.32,13-15,1.2-5.41-.82-8.7,2-14,2-3.76,5.34-6.45,6-6s-1.88,3.6-3,9c-1.44,7,1.19,9.67,0,15-1.57,7.07-8.69,9.83-8,11,.93,1.56,8.69.82,13-4s3.18-11,4-11,3.49,7.84,0,14c-3.31,5.86-10.48,7.29-14,8-12.53,2.5-21.5-3.17-22-2-.72,1.69,17.23,15.31,28,10,3.27-1.61,3.89-4,10-7,4.86-2.39,7.5-2.39,9-5,2.22-3.86-.75-8.7,0-9,.91-.37,6.74,6.16,5,11-1.68,4.67-8.72,3-15,10-3.13,3.49-2.17,4.78-5,7-6.16,4.83-15.46,2.42-17,2-9.52-2.64-14.6-10.15-16-9-1.24,1,3.75,6.23,2,12-.44,1.46-1.18,2.48-6,7-6.83,6.39-10.25,9.59-11,9-1-.83,4.1-7.25,7-19,2-8.22.78-10.19,0-11-2.49-2.63-7.87-1.6-11-1-1.84.35-5,1.19-5,2,.08,1.28,8.15-.14,11,4,2.19,3.16.69,8.66-1,9-1.48.29-2.19-3.56-6-7-5.64-5.1-13.37-5-14-5-9.2.23-13.53,7.39-18,5A5.71,5.71,0,0,1,222.59,82.34Z"/><path class="cls-13" d="M209.59,65.34c.89-8.5,2.49-23.84-7-33-13.47-13-44.32-8.77-52,8-6.75,14.74,7.63,32.2,10.5,35.5,8.88,10.2,26.57,21.46,38,15C207.42,86.13,208.67,74.15,209.59,65.34Z"/><path class="cls-13" d="M329.09,169.84c-6.51,8.93-21.45,12.28-27,7-3.22-3.07-2.15-9.72,0-23,2.06-12.7,4.81-16.1,7-18,1.13-1,5.51-4.8,10-4C328.8,133.56,338.61,156.77,329.09,169.84Z"/><path class="cls-13" d="M345.09,101.84c-.69-.87-5.61-6.85-13-7-13.39-.29-20.48,18.89-22,23-1.93,5.23-1.86,8.39-1,11a15,15,0,0,0,7,8c8,4.41,21,1.84,28-7C350.23,122.09,351.48,109.83,345.09,101.84Z"/><path class="cls-10" d="M100.59,134.34c7.58-11,4.33-34-10-39-10.18-3.54-24.34,2.6-27,12-2.05,7.26,3.5,13.87,12,24,4.74,5.64,8.6,10.11,14,10C95.67,141.22,99.87,135.38,100.59,134.34Z"/><path class="cls-12" d="M151.59,96.34c1.94-5.82-7.4-10.18-13-21-8.5-16.46-1-34-5-35-2.07-.53-5.38,3.88-7,8-4.7,12,3.63,25.19,2,26s-7.17-14.22-20-18c-4.39-1.3-9.61-1.26-10,0s4.21,3.38,10,7c10.07,6.29,19.8,14.64,19,16-.89,1.52-14.48-7-37-12-6.72-1.49-16.41-3.63-17-2-.8,2.22,15.39,11.82,34,16,6.63,1.49,12,1.94,12,2s-74.42-11.08-75-8c-.27,1.42,15.13,6.32,31,9,19.81,3.34,39,3,39,4s-16.38-1.13-23,8c-2.32,3.2-3.43,7.77-2,9,1.24,1.06,3.93-.74,11-4,1.29-.6,7.22-3.33,12-5,8.43-3,13.66-4.78,19-3,6.79,2.25,7.79,8.34,13,8C147.41,101.15,150.66,99.14,151.59,96.34Z"/><path class="cls-13" d="M187.09,81.84c-16.8-11.2-32.24-21.49-45.5-14.5-10.27,5.41-13,17.91-13.5,20.5-.77,4-2,14.65,5,24a27.62,27.62,0,0,0,14,10c11.18,3.27,21-2.59,32.5-9.5,9.39-5.63,18.94-11.34,18.5-18.5C197.93,91.1,196.29,88,187.09,81.84Z"/><path class="cls-10" d="M325.09,124.84c-2.54-5.16-12.28-6.33-18-2-4.38,3.32-7.23,10.5-4,15,3,4.23,9.86,3.86,14,2C323,137.18,327.49,129.7,325.09,124.84Z"/><path class="cls-10" d="M86.59,132.34c-1.25-7.16-21.26-14-32-6a17.1,17.1,0,0,0-6,9c-2.38,9.28,4.62,18.22,11,22,1.95,1.15,5,2.93,8,2,3.53-1.09,4.46-5,7-10C80.73,137.32,87.34,136.62,86.59,132.34Z"/><path class="cls-10" d="M85.59,129.34c12.23-2.42,25.21,11.71,23,21-1.71,7.23-12.48,10.87-20,11-1.49,0-13.18.22-17-7C67.25,146.13,74.74,131.49,85.59,129.34Z"/><path class="cls-10" d="M93.59,123.34c-.74,2.1-3.11,8.76,0,15,3.7,7.42,13.28,10.5,21,9,1.63-.32,9.11-2,13-9a19,19,0,0,0-4-23c-7.24-6.5-17.93-5.68-24-1A18.78,18.78,0,0,0,93.59,123.34Z"/><path class="cls-15" d="M83,122.91c-5,.52-10.58,4-10.37,7.64.24,3.94,7.29,6.48,12.26,6.79,5.42.35,12.55-1.7,13.19-5.09C98.81,128.26,90.66,122.11,83,122.91Z"/><path class="cls-13" d="M204.09,91.84c8,4.85,15.48,15.7,13,26-3.41,14.2-23.31,17.4-27,18-4.66.75-19.25,3.1-29-7-.74-.77-8.78-9.34-7-19C157.09,93.58,186.58,81.26,204.09,91.84Z"/><path class="cls-10" d="M197.09,82.84c.8-10.15,2.12-26.85,15-33,11.79-5.63,28.39-.12,36,12,8.7,13.85,2.29,31-7,40-10.74,10.43-29.88,14.42-39,6C195.59,101.83,196.4,91.56,197.09,82.84Z"/><path class="cls-15" d="M210.09,81.84c-2.72-5.6-28.75-1.78-30,5-.71,3.87,6.49,9.85,14,10C204.67,97.05,211.94,85.63,210.09,81.84Z"/></g></g></svg>