<svg xmlns="http://www.w3.org/2000/svg" xmlns:xlink="http://www.w3.org/1999/xlink" viewBox="0 0 1643 1226"><defs><style>.cls-1,.cls-2{fill:none;}.cls-1,.cls-11,.cls-12,.cls-13,.cls-14,.cls-15,.cls-16,.cls-17,.cls-19,.cls-2,.cls-20,.cls-21,.cls-22,.cls-23,.cls-24,.cls-25,.cls-3,.cls-7,.cls-8{stroke-miterlimit:10;}.cls-1{stroke:url(#linear-gradient);}.cls-2{stroke:url(#linear-gradient-2);}.cls-20,.cls-23,.cls-3{fill:#fffcf6;}.cls-15,.cls-16,.cls-17,.cls-3{stroke:#ff7e98;}.cls-17,.cls-20,.cls-3{stroke-width:2px;}.cls-4{opacity:0.04;}.cls-15,.cls-5{fill:#000105;}.cls-6{fill:#241618;}.cls-7{fill:url(#linear-gradient-3);stroke:url(#linear-gradient-4);}.cls-8{fill:url(#linear-gradient-5);stroke:url(#linear-gradient-6);}.cls-9{clip-path:url(#clip-path);}.cls-10{clip-path:url(#clip-path-2);}.cls-11,.cls-16,.cls-26{fill:#ffb800;}.cls-11,.cls-20{stroke:#ff5700;}.cls-12,.cls-19{fill:#ff5700;}.cls-12{stroke:#ffb800;}.cls-13{fill:#573439;stroke:#241618;}.cls-14,.cls-21{fill:#ff7e98;}.cls-14,.cls-23{stroke:#9ee2ef;}.cls-17,.cls-22{fill:#2351ad;}.cls-18,.cls-25{fill:#9ee2ef;}.cls-19{stroke:#2351ad;}.cls-21,.cls-24{stroke:#251d3c;}.cls-22,.cls-25{stroke:#000105;}.cls-24{fill:#fff6ef;}</style><linearGradient id="linear-gradient" x1="591.83" y1="1089.11" x2="732.77" y2="1089.11" gradientUnits="userSpaceOnUse"><stop offset="0" stop-color="#000105"/><stop offset="0.8" stop-color="#747577" stop-opacity="0.54"/><stop offset="1" stop-color="#fefeff" stop-opacity="0"/></linearGradient><linearGradient id="linear-gradient-2" x1="889.57" y1="1089.4" x2="1031.95" y2="1089.4" gradientUnits="userSpaceOnUse"><stop offset="0" stop-color="#fefeff" stop-opacity="0"/><stop offset="0.2" stop-color="#7a7a7d" stop-opacity="0.52"/><stop offset="1" stop-color="#000105"/></linearGradient><linearGradient id="linear-gradient-3" x1="556.35" y1="1064.02" x2="730.88" y2="1064.02" gradientUnits="userSpaceOnUse"><stop offset="0" stop-color="#000105"/><stop offset="0.81" stop-color="#898a8c" stop-opacity="0.46"/><stop offset="1" stop-color="#fefeff" stop-opacity="0"/></linearGradient><linearGradient id="linear-gradient-4" x1="555.85" y1="1064.02" x2="731.38" y2="1064.02" gradientUnits="userSpaceOnUse"><stop offset="0" stop-color="#000105"/><stop offset="0.93" stop-color="#dfdfe1" stop-opacity="0.12"/><stop offset="1" stop-color="#fefeff" stop-opacity="0"/></linearGradient><linearGradient id="linear-gradient-5" x1="890.3" y1="1064.85" x2="1049.44" y2="1064.85" gradientUnits="userSpaceOnUse"><stop offset="0" stop-color="#fff" stop-opacity="0"/><stop offset="1" stop-color="#000105"/></linearGradient><linearGradient id="linear-gradient-6" x1="889.8" y1="1064.85" x2="1049.94" y2="1064.85" gradientUnits="userSpaceOnUse"><stop offset="0" stop-color="#fefeff" stop-opacity="0"/><stop offset="0.13" stop-color="#bebec0" stop-opacity="0.25"/><stop offset="1" stop-color="#000105"/></linearGradient><clipPath id="clip-path" transform="translate(18 17)"><path class="cls-1" d="M592.37,1084.69c1-11,23.15-19.64,41.55-20.6,23.33-1.21,42.71,9.78,54,16.18,11,6.24,15.32,10.94,31.85,19.13,7.31,3.61,12.78,5.82,12.47,7.35-.49,2.4-14.32-.85-33.24,0-22.28,1-23.22,6.4-45.71,7.36a97.53,97.53,0,0,1-38.78-5.89c-9.3-3.54-15.61-7.79-19.39-14.71C593.59,1090.69,592.06,1087.89,592.37,1084.69Z"/></clipPath><clipPath id="clip-path-2" transform="translate(18 17)"><path class="cls-2" d="M890.16,1106.75c-1.63-3.57,20.18-21.79,47.09-32.36,22-8.65,39.07-8.88,44.32-8.83,12.4.12,27.5,2.42,41.55,11.77,7.77,5.17,8.23,7.85,8.31,8.83.83,10.08-23.78,23.75-47.09,26.48-19,2.22-41.37-2.34-44.32-3a115.33,115.33,0,0,0-22.16-2.94c-6.47-.17-13.85,0-13.85,0C892.37,1107,890.59,1107.69,890.16,1106.75Z"/></clipPath></defs><g id="Layer_1" data-name="Layer 1"><rect class="cls-3" x="1" y="1" width="1641" height="1224"/></g><g id="Layer_2" data-name="Layer 2" class="cls-4"><path class="cls-5" d="M823.4,1000.84c-.7,0-2.57,42.54,5.92,47.07.92.49,3.39,1.3,3.94,0,.7-1.66-2.1-6-3-7.36C822.2,1027.21,824,1000.79,823.4,1000.84Z" transform="translate(18 17)"/><path class="cls-5" d="M800.37,1020c-1,9,.94,17.82,4.54,23.54,2.79,4.41,5.71,5.55,6.81,5.88.86.26,2,.59,2.27,0,.7-1.31-3.5-5.11-6.81-11.77a43.51,43.51,0,0,1-4.54-17.65c-.22-8.51,2.6-14.55,2.27-14.71S801.29,1011.36,800.37,1020Z" transform="translate(18 17)"/><path class="cls-6" d="M811.21,1028.79c-1-.28-5.89,10.76-2.77,14.71.4.51.94.91,2.77,2.94s2.55,3.07,2.77,2.94c.44-.26-1.78-4-2.77-8.83C809.78,1033.58,811.83,1029,811.21,1028.79Z" transform="translate(18 17)"/><path class="cls-5" d="M784.89,1000.84c-.28,0,2.28,9-1.38,19.12a37.75,37.75,0,0,1-2.77,5.88,36.66,36.66,0,0,1-2.56,3.79c0-1.3-.16-2.39-.21-3.79-.27-6.86,3.5-11.27,2.77-11.76-.55-.38-3,1.88-5.86,5.08.13-.72.24-1.44.32-2.14,1.16-11.59-5-20.78-5.54-20.6-.36.12,1.25,3.9,0,8.83a17.69,17.69,0,0,1-2.77,5.88,14,14,0,0,1-1.24,1.42,26.16,26.16,0,0,0-1.53-7.3c-3.07-8.11-10.53-12.34-11.09-11.77-.31.33,1.76,2,2.77,5.89a19.41,19.41,0,0,1,0,8.82l0,.17a26.56,26.56,0,0,0-2.74-6.05c-5.6-9.53-13.68-14.93-13.85-14.71a26.9,26.9,0,0,1,5.54,5.88,27.66,27.66,0,0,1,2.27,4.21c-14.06-16.71-53.91-22.64-78.44-26.27a274.82,274.82,0,0,0-38.79-2.95c-26.65-.15-56.54,0-85.87,17.66-12.55,7.53-26.73,19.3-24.93,23.53,2.39,5.63,29.4-10.45,72-8.82,21.09.8,42.49,5.8,55.4,8.82,17.47,4.09,33.25,8.83,33.25,8.83a176.65,176.65,0,0,1,20.82,5.73c23.1,7.9,31.93,16.26,52.58,19.28,8.32,1.21,15.5,1.11,22.17-3,2-1.22,7-4.17,9.69-10.29C791,1016.28,785.26,1000.78,784.89,1000.84Z" transform="translate(18 17)"/><path class="cls-5" d="M1066.06,984.66c-14.77-9.71-28.38-12.62-41.2-15.22-10-2-28.2-4.86-58.52-2.44-32.42,2.59-65.59,5.25-78.46,18.8,4.4-10,9.59-15.51,9.2-15.86s-7.55,7.07-13.85,17.66a85.43,85.43,0,0,0-4.66,8.63,17.72,17.72,0,0,1-.88-2.75c-1.67-7.61,3.44-14.35,2.77-14.71-.5-.28-3.28,3.73-5.54,8.83-1.92,4.32-3.43,9.37-3.47,12.33a10.58,10.58,0,0,1-2.07-3.51c-1.58-4.53.4-8.71,0-8.82s-2.13,3.92-2.77,8.82a25.49,25.49,0,0,0,0,5.89c.08,1,.16,2,.27,2.89-2.1-3.15-2.56-6-3-5.83s-.27,2.74.44,6.26c-.14-.12-.29-.23-.44-.38-2.5-2.47-2.35-6-2.77-5.88-.57.1-.05,6.47,0,11.24-2.36-3.57-5.24-5.62-5.53-5.36s1.77,2,2.77,5.88c1.06,4.07.9,8.62,0,8.83s-2.39-2.9-2.77-5.88a15.15,15.15,0,0,1,0-3,14.72,14.72,0,0,0-1.31,5.5c-2-6.31-.71-11.33-1.46-11.38-1.27-.09-4.51,14.41,0,20.59-1.56-1.15-6.79-5.15-8.31-11.76-1.13-4.91.37-8.75,0-8.83s-4.34,6.83-2.77,14.71c1.94,9.77,11.64,13.78,13.85,14.71,9,3.82,17.77,1.32,22.16,0,23.3-7,34.95-10.53,57.55-18.49,17.33-6.11,30.9-10.35,47.72-13.87,3.35-.71,5.4-1.13,8.16-1.6,14.32-2.42,41-4.9,69.4,4.54,21.65,7.18,33.81,17.77,36,14.71C1099.16,1016.32,1085,997.08,1066.06,984.66Z" transform="translate(18 17)"/><path class="cls-5" d="M833.37,1017c-.37.08-.7,10.24,5.54,17.65,3.53,4.2,8.08,6.22,8.31,5.88s-4.42-3.06-8.31-8.82C833.86,1024.25,833.68,1016.94,833.37,1017Z" transform="translate(18 17)"/><path class="cls-5" d="M791.82,1028.79c1.63-6.12.39-11.76,0-11.77s.41,6.92-2.77,14.71-8.49,11.58-8.31,11.77S789.23,1038.43,791.82,1028.79Z" transform="translate(18 17)"/><path class="cls-6" d="M816.75,1028.79s-2.67,11.81,2.77,17.65c2.23,2.4,5.35,3.26,5.54,2.94s-3.1-1.9-5.54-5.88a21.28,21.28,0,0,1-2.77-8.83A20.66,20.66,0,0,1,816.75,1028.79Z" transform="translate(18 17)"/><path class="cls-6" d="M794.59,1031.73a11.1,11.1,0,0,1,0,5.88c-1.24,4.13-5.38,6.09-5.54,5.89s4.91-3.4,5.54-8.83A18.73,18.73,0,0,0,794.59,1031.73Z" transform="translate(18 17)"/><path class="cls-7" d="M556.35,1081.74c.23.41,37.95-40.12,88.65-38.24,50.51,1.87,85.45,44.77,85.87,44.13s-32.26-44.17-83.1-47.08C594.34,1037.5,556.12,1081.33,556.35,1081.74Z" transform="translate(18 17)"/><path class="cls-8" d="M890.3,1085.58c.24.41,38.08-40.82,88.64-38.25,41.16,2.09,70.12,32.15,70.5,31.47s-27.26-31.23-67.73-34.41C929.11,1040.25,890.05,1085.16,890.3,1085.58Z" transform="translate(18 17)"/><g class="cls-9"><ellipse class="cls-5" cx="665.77" cy="1107.57" rx="29.09" ry="30.89"/></g><path class="cls-1" d="M592.37,1084.69c1-11,23.15-19.64,41.55-20.6,23.33-1.21,42.71,9.78,54,16.18,11,6.24,15.32,10.94,31.85,19.13,7.31,3.61,12.78,5.82,12.47,7.35-.49,2.4-14.32-.85-33.24,0-22.28,1-23.22,6.4-45.71,7.36a97.53,97.53,0,0,1-38.78-5.89c-9.3-3.54-15.61-7.79-19.39-14.71C593.59,1090.69,592.06,1087.89,592.37,1084.69Z" transform="translate(18 17)"/><g class="cls-10"><ellipse class="cls-5" cx="988.49" cy="1106.1" rx="27.7" ry="29.42"/></g><path class="cls-2" d="M890.16,1106.75c-1.63-3.57,20.18-21.79,47.09-32.36,22-8.65,39.07-8.88,44.32-8.83,12.4.12,27.5,2.42,41.55,11.77,7.77,5.17,8.23,7.85,8.31,8.83.83,10.08-23.78,23.75-47.09,26.48-19,2.22-41.37-2.34-44.32-3a115.33,115.33,0,0,0-22.16-2.94c-6.47-.17-13.85,0-13.85,0C892.37,1107,890.59,1107.69,890.16,1106.75Z" transform="translate(18 17)"/><path class="cls-5" d="M1341.69,709.57c18.9,201.51-140.06,390-177.29,376.59-28.14-10.11,17.19-134.11-52.63-279.5-12.78-26.6-38.15-78.17-88.65-120.63-127-106.76-314.19-73-423.83-8.82-30.6,17.92-93.6,55.93-130.19,132.39-13.88,29-19.47,54.15-24.94,79.44-25.68,118.87,1.51,195.21-11.08,200.06-20.72,8-166.8-171.13-149.58-373.65,19.72-232,248.31-430.09,482-450.14C1041.54,241.64,1318.92,466.86,1341.69,709.57Z" transform="translate(18 17)"/><path class="cls-11" d="M399.84,527.16C362.3,570.65,419,671.54,387.38,693.39c-14,9.7-40.27.27-52.64-14.71-16-19.4-1.78-39.68-16.62-79.44-10.86-29.1-23.13-26.61-26.31-48.54-4.73-32.56,7.56-70.58,33.24-91.21,38.37-30.82,77.5-5.72,99.72-35.3,18.18-24.2-3.94-46.4,16.62-85.32,2.11-4,24.28-45.18,60.95-50,23.11-3.05,38,10.14,49.86,0,12-10.28.83-27.37,11.08-41.19,18.37-24.78,68.63,10.85,110.81-17.65,13-8.82,9.29-12.95,27.7-26.48,5.41-4,48.15-35.39,69.25-20.59,14.52,10.18,3.48,31.5,19.39,47.07,3.06,3,11.58,10.14,63.71,8.82,43.91-1.1,54.61-6.59,66.49,2.95,17,13.62,13.14,31.19,24.93,35.3,18.94,6.61,35.45-47.27,69.25-47.07,20.92.12,18.9,23,61,44.13,23,11.55,37.17,11.5,55.4,29.42,6.67,6.56,10.89,13.23,19.39,26.48,23.12,36,20.57,48.44,37.4,60.31,7.82,5.53,9.79,3.84,27.7,14.71,13.14,8,19.71,12,23.54,16.18,13.8,15.16,19.72,39.47,27.71,50s9.47,8.37,19.39,20.59c7.41,9.15,20.59,25.76,24.93,47.08,4.78,23.47.12,59.34-19.39,70.61-25,14.44-60.54-19.51-69.26-8.83s27.88,43.18,19.39,73.55c-6.09,21.82-34.47,39.1-58.17,38.25-54.32-2-64-98.48-135.74-182.41-7.17-8.38-107.67-122.89-235.46-123.57-118.56-.62-167,97.24-310.25,108.86C457,519.07,421,502.65,399.84,527.16Z" transform="translate(18 17)"/><path class="cls-12" d="M513.42,580.12c3.47.32,6.43,57.12-5.54,120.62-11.45,60.74-18,95.67-44.32,123.57-44,46.69-90.19,17.48-149.59,73.55-29.88,28.2-36.66,53-38.78,64.73-4,22.16.76,41.09,0,41.19-1,.13-13.53-32.67-5.54-67.67,12-52.8,63.64-79.54,74.79-85.32,36-18.66,50.63-8.33,85.87-32.36,10.5-7.16,27.88-19.27,41.56-41.19C487,753.06,487,733.9,494,683.09,498.63,650,509.52,579.76,513.42,580.12Z" transform="translate(18 17)"/><path class="cls-13" d="M530,562.46c-12.6-11.82-34.11-7.75-41.55,5.89-5.2,9.53-2.46,21.75,2.77,29.42,8.38,12.31,27,18.5,38.78,8.83C542.23,596.62,542.23,573.91,530,562.46Z" transform="translate(18 17)"/><path class="cls-12" d="M524.5,639c-9.79-13.74-31.44-11.87-41.55,0-4.91,5.76-8.22,15.18-5.54,23.54,5.16,16.11,31.38,24.59,44.32,11.76C530.14,665.93,532,649.52,524.5,639Z" transform="translate(18 17)"/><path class="cls-12" d="M477.41,706.63c-7.52,4.5-15.8,14.61-13.85,23.53,3.52,16.14,40.13,26.7,52.63,11.77,5.21-6.22,5.72-16.29,2.77-23.53C513,703.66,491.6,698.12,477.41,706.63Z" transform="translate(18 17)"/><path class="cls-12" d="M446.93,762.53c-.44.41-9.86,9.31-8.31,20.59,3.1,22.49,47.5,37.86,60.95,23.54,7.12-7.59,5-23,0-32.36C489.28,755,460.85,749.75,446.93,762.53Z" transform="translate(18 17)"/><path class="cls-12" d="M405.38,803.72a22.07,22.07,0,0,0-16.62,14.71c-5.6,18.6,18,47.09,38.78,44.13,5.75-.82,13.79-4.41,16.62-11.77C450.9,833.31,426.25,799.94,405.38,803.72Z" transform="translate(18 17)"/><path class="cls-12" d="M352.75,827.25c-12.47,15.92-10.53,47.23,5.54,55.9,7.48,4,18.65,3.51,24.93-2.94,14.88-15.28-1.37-60-16.62-61.78C360.25,817.67,355,824.45,352.75,827.25Z" transform="translate(18 17)"/><path class="cls-12" d="M297.35,856.67c-10.74,1.83-19,13.29-19.39,23.54-.9,21.45,32.22,40.39,44.32,32.36,8-5.3,8-23.21,2.77-35.3C321.12,868.25,310.72,854.4,297.35,856.67Z" transform="translate(18 17)"/><path class="cls-12" d="M297.35,939.05c-2.1-13.19-24.54-23.4-38.79-14.71-6.54,4-12.68,12.79-11.08,20.6,2.76,13.41,28,22.18,41.56,11.77C293.71,953.1,298.46,946.06,297.35,939.05Z" transform="translate(18 17)"/><path class="cls-12" d="M272.42,980.24c-6.49-.67-14.17,2.64-16.63,8.83-4.18,10.57,7.55,27.79,19.4,26.48,6.54-.73,12.86-7.08,13.85-14.71C290.36,990.63,281.76,981.21,272.42,980.24Z" transform="translate(18 17)"/><path class="cls-14" d="M1057.23,603.65c-1.89.41-2.82,26.61,7.45,53,11.28,29,29.14,40.24,47.43,58.84,31.4,31.93,73.34,94.86,60.6,141.22-10.68,38.9-56.2,52.84-53.12,58.85,2.73,5.31,42,0,59.87-29.43,18.5-30.3,8.9-69.39,5-85.32-8.4-34.23-25.78-55.82-42.4-76.49-32.75-40.7-50.45-39.92-67.36-76.49C1062.54,621.5,1058.86,603.31,1057.23,603.65Z" transform="translate(18 17)"/><path class="cls-13" d="M1059.14,586c-13-1.45-28.24,10.88-27.71,23.54.55,12.94,17.35,19.76,19.39,20.59,9.58,3.89,25.23,5.21,30.48-2.94C1088.3,616.31,1077.11,588,1059.14,586Z" transform="translate(18 17)"/><path class="cls-14" d="M1089.61,650.73c-12.78-2.23-24.82,8-27.7,20.59-2.23,9.74.77,21.95,8.31,26.48,13.41,8.07,39.83-9,38.78-26.48C1108.43,661.88,1099.83,652.51,1089.61,650.73Z" transform="translate(18 17)"/><path class="cls-14" d="M1128.39,689c-17.23-3.82-37.41,19.14-33.24,35.31,2,7.91,9.69,13.36,16.62,14.71,16.65,3.25,36.08-15.78,33.24-32.36C1143.55,698.1,1136.29,690.73,1128.39,689Z" transform="translate(18 17)"/><path class="cls-14" d="M1167.17,733.11c-12.18-3.08-28.31,15.06-27.7,32.36.26,7.38,3.67,17.7,11.08,20.59,11.31,4.42,29-9.65,30.47-26.47C1182,748.52,1176,735.33,1167.17,733.11Z" transform="translate(18 17)"/><path class="cls-14" d="M1197.64,806.66c-11.89-9-32.05-11.91-41.55,0-5.59,7-7.06,18.6-2.77,26.48,10.3,18.9,52.63,14.26,58.17,0C1214.78,824.67,1205.26,812.41,1197.64,806.66Z" transform="translate(18 17)"/><path class="cls-14" d="M1150.55,865.5c-4.48,8.27,2.92,29.67,19.39,32.36,17.25,2.82,30.18-17.22,27.7-26.48C1194.18,858.44,1157,853.54,1150.55,865.5Z" transform="translate(18 17)"/><path class="cls-14" d="M1106.23,889c-6.51,2.32-12.26,20.26-2.77,32.36s27.14,9.32,30.47,2.94C1139,914.58,1116.19,885.48,1106.23,889Z" transform="translate(18 17)"/><path class="cls-15" d="M867.41,514.12s-17.78,15.46-19,16.53c-49.47,43.42-65.25,118.8-63.28,120,1.05.62,8.12-18.61,33.29-62.28,12.14-21.07,21.21-35.18,29.17-46.83C855.35,530.16,862.22,520.9,867.41,514.12Z" transform="translate(18 17)"/><path class="cls-15" d="M833,526c11.27-7.13,28.86,8.39,26.7,24.73-1.08,8.15-7,15.81-13.21,18.27-11.41,4.51-23.63-8.54-22.84-23.57C824,538.27,827.41,529.55,833,526Z" transform="translate(18 17)"/><path class="cls-15" d="M802.61,569.68c9-6.8,26.8,6.5,25.45,21.58-.51,5.73-3.8,11.72-8,14.28-9.6,5.87-24-6.33-23.53-21C796.7,579.74,798.47,572.79,802.61,569.68Z" transform="translate(18 17)"/><path class="cls-15" d="M786.24,623.15c8.64-4.6,19.52,4.38,19.12,14.1-.34,8.45-9.11,15.4-15.13,17.69-2,.77-8.93,3.4-12.25-.91C773.18,647.79,776.77,628.18,786.24,623.15Z" transform="translate(18 17)"/><path class="cls-15" d="M852.82,498.6c6.38-14.21,35.2-14.17,38.11-2.42,2.67,10.78-15.08,36.91-27.65,33.38-5.37-1.5-9.2-8.26-10.73-14.36C852,513.18,850,505,852.82,498.6Z" transform="translate(18 17)"/><path class="cls-16" d="M657.46,441.84c-16.22-24.31-131.33-5-169,76.49-33.84,73.26,15.17,152.89,38.78,191.24,10.09,16.4,24.42,35.21,30.47,32.36,5.29-2.49.22-19.66,2.77-47.07,1.7-18.33,5.86-31.09,11.08-47.07C595.66,574,675,468.16,657.46,441.84Z" transform="translate(18 17)"/><path class="cls-14" d="M901.24,453.61c20.66-27.16,144.08,26.14,146.81,76.49.63,11.52-5.33,17.71-11.08,58.84-3,21.27-4.47,32.61-2.77,47.08,3.85,32.59,20.58,52,19.4,53C1049.77,692,871.93,492.12,901.24,453.61Z" transform="translate(18 17)"/><path class="cls-17" d="M668.55,441.84c-1.33-32.46-153.73-82.79-243.78-17.65-33.07,23.92-52.63,55.9-52.63,55.9-23.21,37.95-15,55.63-38.78,97.09-24.75,43.16-52.1,56.17-47.09,67.66,3.43,7.89,18.85,7.64,77.56,0,111.61-14.52,124.38-22.54,133-29.42,31.52-25.26,19.86-45.76,52.63-88.26C602.1,458.85,669.43,463.53,668.55,441.84Z" transform="translate(18 17)"/><path class="cls-17" d="M868,368.29c10-13.92,82.23,51.45,210.53,105.91,84.3,35.79,163.7,54.54,191.14,103,4.21,7.43,14.19,27.86,36,44.13,24.71,18.42,47.38,18.68,47.09,23.53-.42,7-47.77,12.74-99.72,8.83-51.64-3.89-90-6.78-127.43-35.31-33.56-25.57-23.62-40.24-58.17-79.43-63.61-72.16-130.38-58.1-185.6-138.28C874.13,389.44,863.78,374.17,868,368.29Z" transform="translate(18 17)"/><path class="cls-18" d="M629.76,427.13c-16.08-13.35-69,9.13-83.1,50C536.38,507,549.9,537.78,555,547.75c18.67,36.73,48.4,38.15,49.86,64.73,1,18.53-12.73,30.15-5.54,50,3,8.22,8.73,15.6,11.08,14.71,2.74-1.05-1.61-12.37,0-29.42,1.75-18.43,8.42-22.18,8.31-35.31-.15-18.78-15.18-31.12-13.85-32.36,2.45-2.28,21.83,6.24,24.93,23.53,2.45,13.67-10,25-8.31,26.48,2,1.77,23.38-12.08,22.16-26.48-1.18-14-23.44-26.35-55.4-44.13-6.21-3.45-14.53-7.84-19.39-17.65-5.27-10.64-3.55-21.8-2.77-26.48,5.81-34.83,44.71-55.78,47.09-53,2.84,3.37-45.75,41-36,67.67,1.9,5.21,5.89,8.38,13.85,14.71,25.47,20.26,39.59,12.51,49.86,26.48,10.12,13.75-.74,25.11,11.08,50,6.77,14.25,17.15,24.92,19.4,23.53,2.67-1.65-8.61-18.92-13.86-50-3.53-21-.34-24.54-5.54-32.37-10.24-15.41-26.91-8-38.78-23.53-8-10.48-10.18-26.65-5.54-38.25,5-12.4,14.41-11.28,22.16-23.54C639.57,461.66,639.9,435.54,629.76,427.13Z" transform="translate(18 17)"/><path class="cls-3" d="M862.46,468.32c15.7,6.65,12.31,6.74,30.47,14.71,52.19,22.92,68.63,17.15,99.72,38.25,18.54,12.57,36.83,31,33.24,41.18-1.78,5.07-7.87,5-8.31,8.83-1.07,9.51,36.61,11.63,60.95,38.25,16.2,17.71,12.21,25.83,27.7,50,21.32,33.31,37.39,31.21,66.48,61.79,16.77,17.62,56.81,59.71,49.86,100-6.42,37.26-47.19,39.53-49.86,76.49-1.87,26,17.8,31,22.16,70.61,3.9,35.37-11,38.85-5.54,64.73,8.19,39,43.71,39.46,58.18,85.32,9,28.48,2,49.5,5.54,50,5.66.82,29.09-51.41,11.08-88.27-11.59-23.69-31.28-22.58-36-44.13-5.25-23.93,17.44-32.65,16.62-61.78-1-34.49-33.32-42.6-30.47-70.61,2.37-23.2,25.36-25.5,38.79-55.9,13.22-30,5.71-61.29,2.77-73.55-12.33-51.38-47.13-54.52-127.43-138.28-40-41.73-61.83-60.54-83.11-85.32C1009.7,509.24,1002.12,493,976,483c-16.83-6.43-34.61-7.67-60.94-23.54a188.37,188.37,0,0,1-27.7-20.59c-29-24.41-72.61-17.53-166.21-17.66-114.33-.15-141.15,10-160.67,20.6-16.38,8.86-32.16,22.58-63.71,50-40.35,35.08-67.07,58.66-91.42,97.09-19.54,30.85-38.92,61.44-36,100,2.73,36.12,21.8,37.26,30.47,73.56,9.86,41.23-10.23,58.67-44.32,179.46-21,74.28-19.89,90.79-13.85,105.92,12.6,31.56,36.18,41.66,36,70.61-.2,32.82-32.1,54.23-30.47,55.9,2.05,2.1,53.9-30.45,52.63-70.61-.84-26.86-24.7-33.12-33.24-64.73-7.64-28.26,4.68-48.26,22.16-94.14,34.89-91.57,52.75-138.44,41.55-188.3-8.71-38.8-28.86-52-24.93-91.2,2.84-28.37,16.09-48.61,24.93-61.79,31.81-47.4,57.1-35.07,105.27-88.26,18.63-20.58,26.53-35.32,49.86-47.07,17.45-8.79,32-10.09,49.86-11.77C756.41,445.16,750.85,442.6,771,444.78A328.87,328.87,0,0,1,862.46,468.32Z" transform="translate(18 17)"/><path class="cls-19" d="M1082.68,537.46c-25.29-19.08-67.82-19-83.1,5.88-12.51,20.39-1.88,49.48,8.31,64.73,14.58,21.81,36.46,27.51,44.32,29.42,9,2.19,35.65,8.67,49.86-5.89C1121.05,612.16,1112.88,560.23,1082.68,537.46Z" transform="translate(18 17)"/><path class="cls-20" d="M892.93,436c.28-.46,28.13,10.36,36,35.3,4,12.66,2.09,23.4,0,35.31-15.67,89.27-13.09,83.57-16.62,94.14-14.4,43.12-36.26,74.89-38.78,73.55s15.16-33.32,22.16-85.32c2-14.81,3.68-27.2,2.77-44.13-2-36.58-13.5-46.36-19.39-88.26-3.93-27.92-6.85-48.66,2.77-55.9,14.55-11,55.45,10.72,72,44.13,10.93,22,14.77,56.21,5.54,85.32-3.91,12.33-10.14,23.71-8.31,41.19,1.63,15.51,9,30,13.85,29.42,6.25-.76,2.26-25.83,16.62-38.25,12-10.41,29.88-8.28,30.47-5.88s-15,4-22.16,17.65c-3.55,6.75-1.18,9.06-5.54,17.66-5.38,10.61-12,12.94-11.08,17.65.78,4.18,6.39,4.59,13.85,8.82,1.2.69,19.7,10.8,22.16,26.48,2.8,17.85-10,36.57-16.62,35.31-5.49-1-.49-18.7-11.08-41.19-9.07-19.28-23.92-30.3-24.93-29.42-.6.53,3.72,5.42,5.54,14.71,1,5.29,1.16,11.47,0,11.77s-2.91-6.33-8.31-17.66c-4.16-8.72-5.52-9.71-11.08-20.59,0,0-4.17-8.15-8.31-17.65-12.23-28,12.32-79.67-5.54-114.74C917.32,442.56,892.67,436.37,892.93,436Z" transform="translate(18 17)"/><path class="cls-19" d="M1121.46,455.08c-9.71-24.21-22.74-56.67-49.86-61.79-30.7-5.78-65.23,26.18-72,58.85-12.48,60,67.17,128.35,105.26,114.74,10.17-3.64,16.11-12.66,19.39-17.65C1146,516.17,1127.51,470.15,1121.46,455.08Z" transform="translate(18 17)"/><path class="cls-21" d="M862.46,421.24C864.13,401.45,918.65,383.88,965,383c17-.33,21.47,1.82,27.7-2.94,16.17-12.35,6.26-42.12,22.16-91.21,3.31-10.2,7.8-24.07,11.08-23.54,5.74.94,9.35,46-2.77,88.27-3,10.51-6.75,20-5.54,20.59,2.8,1.45,22.62-19.34,27.7-47.07,4.09-22.3-5.25-28-2.77-50,4-35.26,32.56-61.09,36-58.84,2.74,1.79-12.82,19.66-16.62,53-3.72,32.57,7.94,43.8,0,70.61-6.74,22.74-20.85,33.95-19.4,35.3,2,1.82,30.08-15.63,36-44.13,3.31-15.89-2.29-25.58,5.54-41.19,5.54-11.05,14.77-19,16.62-17.65s-5.22,10.59-8.31,26.48c-4,20.58,3.28,28.44,0,44.13-4.35,20.8-24.09,28.92-22.16,32.36,2.57,4.61,24.06,2.43,36-11.77,11.56-13.73,8.81-32.41,11.08-32.36,2.51.06,9.64,23.08,0,41.19-9.19,17.26-29,21.47-38.78,23.54-34.71,7.37-59.56-9.33-60.95-5.89-2,5,47.72,45,77.57,29.42,9-4.73,10.77-11.73,27.7-20.59,13.45-7,20.76-7,24.93-14.71,6.15-11.35-2.08-25.58,0-26.48,2.52-1.09,18.67,18.14,13.85,32.36-4.66,13.75-24.15,8.83-41.55,29.42-8.67,10.27-6,14.07-13.85,20.6-17.08,14.23-42.83,7.14-47.09,5.88-26.38-7.74-40.47-29.84-44.33-26.48-3.44,3,10.39,18.35,5.54,35.31-1.23,4.31-3.26,7.32-16.62,20.59-18.92,18.82-28.39,28.23-30.47,26.48-2.92-2.45,11.34-21.32,19.39-55.9,5.63-24.17,2.15-30,0-32.36-6.91-7.72-21.82-4.7-30.47-2.94-5.11,1-14,3.5-13.85,5.88.21,3.77,22.55-.4,30.47,11.77,6.06,9.32,1.9,25.49-2.77,26.48-4.09.87-6.08-10.48-16.62-20.59-15.64-15-37-14.76-38.78-14.72-25.49.68-37.5,21.77-49.86,14.72C866.26,433.38,862,427.22,862.46,421.24Z" transform="translate(18 17)"/><path class="cls-22" d="M826.44,371.23c2.46-25,6.9-70.14-19.39-97.09-37.31-38.25-122.79-25.79-144,23.54-18.7,43.38,21.13,94.74,29.08,104.44,24.6,30,73.6,63.14,105.27,44.13C820.42,432.41,823.89,397.14,826.44,371.23Z" transform="translate(18 17)"/><path class="cls-19" d="M1157.48,678.68c-18,26.29-59.42,36.13-74.8,20.59-8.94-9-6-28.58,0-67.67,5.7-37.35,13.33-47.34,19.39-53,3.13-2.89,15.26-14.12,27.7-11.77C1156.65,572,1183.85,640.23,1157.48,678.68Z" transform="translate(18 17)"/><path class="cls-19" d="M1201.8,478.62c-1.92-2.55-15.56-20.14-36-20.6-37.11-.84-56.75,55.59-61,67.67-5.35,15.38-5.15,24.69-2.77,32.36,4.61,14.84,17,22.11,19.39,23.54,22.08,13,58.17,5.41,77.57-20.6C1216,538.19,1219.5,502.14,1201.8,478.62Z" transform="translate(18 17)"/><path class="cls-16" d="M524.5,574.23c21-32.32,12-100.09-27.7-114.74-28.2-10.41-67.45,7.65-74.8,35.31-5.67,21.35,9.7,40.8,33.24,70.61,13.12,16.6,23.81,29.74,38.79,29.42C510.87,594.47,522.5,577.31,524.5,574.23Z" transform="translate(18 17)"/><path class="cls-21" d="M665.78,462.43c5.37-17.1-20.52-29.93-36-61.78-23.55-48.43-2.84-100-13.85-103-5.73-1.56-14.92,11.41-19.39,23.53-13,35.33,10.05,74.14,5.54,76.5s-19.86-41.84-55.4-53c-12.18-3.81-26.62-3.69-27.7,0s11.65,9.94,27.7,20.59c27.88,18.5,54.83,43.1,52.63,47.08-2.47,4.49-40.13-20.68-102.49-35.31-18.62-4.36-45.47-10.66-47.1-5.88-2.23,6.55,42.64,34.77,94.19,47.07a333.6,333.6,0,0,0,33.24,5.89c-.08.61-206.15-32.6-207.76-23.54-.74,4.19,41.91,18.6,85.87,26.48,54.88,9.83,108,8.79,108,11.77,0,2.75-45.38-3.33-63.71,23.53-6.44,9.44-9.5,22.87-5.54,26.48,3.42,3.13,10.89-2.18,30.47-11.77,3.57-1.74,20-9.78,33.24-14.71,23.34-8.66,37.83-14.05,52.63-8.82,18.8,6.63,21.58,24.55,36,23.53C654.19,476.6,663.19,470.67,665.78,462.43Z" transform="translate(18 17)"/><path class="cls-22" d="M764.12,419.77c-46.54-32.93-89.32-63.21-126-42.66-28.45,15.93-36,52.71-37.39,60.32-2.15,11.86-5.54,43.12,13.85,70.61,3.33,4.72,16.15,22.39,38.78,29.42,31,9.61,58.08-7.63,90-28,26-16.55,52.46-33.37,51.25-54.43C794.12,447,789.59,437.8,764.12,419.77Z" transform="translate(18 17)"/><path class="cls-23" d="M1146.39,546.28c-7-15.16-34-18.62-49.86-5.88-12.15,9.77-20,30.9-11.08,44.13,8.42,12.45,27.3,11.36,38.78,5.88C1140.62,582.6,1153,560.6,1146.39,546.28Z" transform="translate(18 17)"/><path class="cls-16" d="M485.72,568.35c-3.47-21.06-58.91-41.25-88.65-17.65a50.2,50.2,0,0,0-16.62,26.48c-6.6,27.32,12.8,53.62,30.47,64.72,5.39,3.39,13.75,8.64,22.16,5.89,9.76-3.2,12.35-14.77,19.39-29.43C469.47,583,487.79,580.94,485.72,568.35Z" transform="translate(18 17)"/><path class="cls-16" d="M483,559.52c33.87-7.12,69.81,34.47,63.71,61.79-4.75,21.27-34.59,32-55.4,32.36-4.15.07-36.52.65-47.1-20.59C432.15,608.93,452.87,565.85,483,559.52Z" transform="translate(18 17)"/><path class="cls-16" d="M505.11,541.87c-2.07,6.19-8.61,25.78,0,44.13,10.25,21.84,36.77,30.89,58.17,26.48,4.52-.93,25.24-5.85,36-26.48,11-21.09,7.24-50.21-11.08-67.67-20.07-19.12-49.67-16.71-66.48-2.94C511,524.16,507,536.33,505.11,541.87Z" transform="translate(18 17)"/><path class="cls-24" d="M475.66,540.61c-13.77,1.52-29.32,11.84-28.73,22.48.65,11.6,20.19,19.07,33.95,20,15,1,34.76-5,36.56-15C519.55,556.37,497,538.25,475.66,540.61Z" transform="translate(18 17)"/><path class="cls-22" d="M811.21,449.19c22.26,14.3,42.87,46.21,36,76.5-9.46,41.79-64.57,51.21-74.79,53-12.92,2.2-53.34,9.11-80.34-20.6-2.05-2.26-24.32-27.46-19.39-55.9C681,454.32,762.71,418.07,811.21,449.19Z" transform="translate(18 17)"/><path class="cls-25" d="M791.82,422.72c2.22-29.85,5.87-79,41.55-97.09,32.64-16.57,78.64-.35,99.72,35.3,24.09,40.75,6.35,91.15-19.39,117.69-29.76,30.68-82.78,42.42-108,17.65C787.66,478.6,789.91,448.37,791.82,422.72Z" transform="translate(18 17)"/><path class="cls-26" d="M827.83,419.77c-7.55-16.47-79.66-5.21-83.11,14.71-2,11.41,18,29,38.79,29.42C812.8,464.52,833,430.94,827.83,419.77Z" transform="translate(18 17)"/></g></svg>